<?xml version="1.0" encoding="UTF-8" standalone="no"?>
<!-- Created with Inkscape (http://www.inkscape.org/) -->

<svg
   version="1.1"
   id="svg1"
   width="74.290649"
   height="102.78816"
   viewBox="0 0 74.290649 102.78816"
   sodipodi:docname="brandbook-2016.pdf"
   xmlns:inkscape="http://www.inkscape.org/namespaces/inkscape"
   xmlns:sodipodi="http://sodipodi.sourceforge.net/DTD/sodipodi-0.dtd"
   xmlns="http://www.w3.org/2000/svg"
   xmlns:svg="http://www.w3.org/2000/svg">
  <defs
     id="defs1">
    <clipPath
       clipPathUnits="userSpaceOnUse"
       id="clipPath11">
      <path
         d="M 0,0 H 792 V 612 H 0 Z"
         transform="translate(-478.15471,-230.82441)"
         id="path11" />
    </clipPath>
  </defs>
  <sodipodi:namedview
     id="namedview1"
     pagecolor="#00768f"
     bordercolor="#000000"
     borderopacity="0.25"
     inkscape:showpageshadow="2"
     inkscape:pageopacity="0.0"
     inkscape:pagecheckerboard="0"
     inkscape:deskcolor="#d1d1d1"
     showgrid="false" />
  <g
     id="g1"
     inkscape:groupmode="layer"
     inkscape:label="14"
     transform="translate(-592.70459,-121.55721)">
    <path
       id="path10"
       d="m 0,0 h -12.378 c -1.094,0 -1.983,-0.887 -1.983,-1.981 v -5.368 c 0,-1.095 0.889,-1.982 1.983,-1.982 H 0 c 1.094,0 1.981,0.887 1.981,1.982 v 5.368 C 1.981,-0.887 1.094,0 0,0 m 20.223,27.731 c -0.371,0.744 -2.765,5.489 -2.765,5.489 0,0 0.911,0.538 1.326,0.743 0.412,0.205 0.722,0.467 0.16,1.528 -0.606,1.142 -1.198,0.809 -1.198,0.809 0,0 -0.799,-0.442 -1.69,-0.893 -1.486,2.189 -3.551,2.4 -4.169,2.394 -0.411,-0.001 -2.436,0 -3.054,0 -0.62,0 -1.195,-0.082 -1.447,-0.413 -0.245,-0.329 -0.822,-0.62 -1.522,-0.62 h -20.925 c -0.207,-0.017 -0.248,0.126 -0.375,0.208 -1.404,0.784 -2.948,0.02 -3.282,-0.352 -0.327,-0.37 -1.649,-1.981 -2.429,-2.866 -0.788,-0.887 -1.468,-1.055 -2.002,-1.22 0.327,0.435 0.082,0.849 0.082,0.849 l -0.313,0.616 0.435,1.177 0.39,0.206 -0.226,0.539 c 0,0 -0.248,-0.106 -0.704,-0.331 -0.45,-0.226 -0.45,-0.434 -0.45,-0.434 -0.205,-0.742 -0.745,-0.784 -0.745,-0.784 0,0 -1.198,2.269 -1.359,2.559 -0.168,0.289 -0.495,1.198 -4.501,-0.948 -4.003,-2.148 -3.053,-2.973 -3.053,-2.973 l 1.363,-2.638 -0.416,-0.334 0.997,-1.979 c 0,0 -0.252,-0.124 -1.122,-0.704 -0.863,-0.576 -1.813,-1.154 -1.813,-2.721 v -57.614 c 0,-4.335 1.24,-6.314 6.068,-6.314 h 44.079 c 2.844,0 5.571,1.486 5.571,6.435 v 56.956 c 0,2.846 -0.541,2.888 -0.911,3.63 m -31.651,4.788 H 3.258 c 1.256,0 2.274,-1.017 2.274,-2.27 0,-1.254 -1.018,-2.269 -2.274,-2.269 h -14.686 c -1.256,0 -2.272,1.015 -2.272,2.269 0,1.253 1.016,2.27 2.272,2.27 m 18.61,-45.336 c 0,0 4.916,-8.581 5.945,-10.55 1.361,-2.605 -0.495,-3.721 -0.495,-3.721 0,0 -2.476,-1.244 -3.717,0.99 -1.049,1.9 -4.477,7.941 -5.696,9.806 -1.567,2.399 -2.226,3.227 -4.332,3.227 h -4.996 -0.33 -5.03 c -2.123,0 -2.789,-0.828 -4.372,-3.227 -1.227,-1.865 -4.677,-7.906 -5.738,-9.806 -1.249,-2.234 -3.745,-0.99 -3.745,-0.99 0,0 -1.871,1.116 -0.498,3.721 1.038,1.969 5.989,10.55 5.989,10.55 0,0 1.247,1.902 1.247,3.473 v 4.39 0.827 4.373 c 0,1.568 -1.247,3.466 -1.247,3.466 0,0 -4.951,8.561 -5.989,10.524 -1.373,2.6 0.498,3.714 0.498,3.714 0,0 2.496,1.239 3.745,-0.99 1.061,-1.894 4.511,-7.923 5.738,-9.782 1.583,-2.394 2.249,-3.216 4.372,-3.216 h 5.03 0.33 4.996 c 2.106,0 2.765,0.822 4.332,3.216 1.219,1.859 4.647,7.888 5.696,9.782 1.241,2.229 3.717,0.99 3.717,0.99 0,0 1.856,-1.114 0.495,-3.714 C 12.098,12.273 7.182,3.712 7.182,3.712 c 0,0 -1.239,-1.898 -1.239,-3.466 v -4.373 -0.827 -4.39 c 0,-1.571 1.239,-3.473 1.239,-3.473"
       style="fill:#ffffff;fill-opacity:1;fill-rule:nonzero;stroke:none"
       transform="matrix(1.3333333,0,0,-1.3333333,638.81659,171.9587)"
       clip-path="url(#clipPath11)"
       inkscape:export-filename="..\assets\path10.svg"
       inkscape:export-xdpi="96"
       inkscape:export-ydpi="96" />
  </g>
</svg>
