<?xml version="1.0" encoding="UTF-8" standalone="no"?>
<!-- Created with Inkscape (http://www.inkscape.org/) -->

<svg
   width="80.783882mm"
   height="9.4321604mm"
   viewBox="0 0 80.783882 9.4321604"
   version="1.1"
   id="svg1"
   xmlns:inkscape="http://www.inkscape.org/namespaces/inkscape"
   xmlns:sodipodi="http://sodipodi.sourceforge.net/DTD/sodipodi-0.dtd"
   xmlns="http://www.w3.org/2000/svg"
   xmlns:svg="http://www.w3.org/2000/svg">
  <sodipodi:namedview
     id="namedview1"
     pagecolor="#ffffff"
     bordercolor="#000000"
     borderopacity="0.25"
     inkscape:showpageshadow="2"
     inkscape:pageopacity="0.0"
     inkscape:pagecheckerboard="0"
     inkscape:deskcolor="#d1d1d1"
     inkscape:document-units="mm" />
  <defs
     id="defs1">
    <clipPath
       clipPathUnits="userSpaceOnUse"
       id="clipPath42">
      <path
         d="M 0,0 H 792 V 612 H 0 Z"
         transform="translate(-559.96261,-518.14171)"
         id="path42" />
    </clipPath>
    <clipPath
       clipPathUnits="userSpaceOnUse"
       id="clipPath44">
      <path
         d="M 0,0 H 792 V 612 H 0 Z"
         transform="translate(-569.19421,-524.63212)"
         id="path44" />
    </clipPath>
    <clipPath
       clipPathUnits="userSpaceOnUse"
       id="clipPath46">
      <path
         d="M 0,0 H 792 V 612 H 0 Z"
         transform="translate(-595.25291,-517.47091)"
         id="path46" />
    </clipPath>
    <clipPath
       clipPathUnits="userSpaceOnUse"
       id="clipPath48">
      <path
         d="M 0,0 H 792 V 612 H 0 Z"
         transform="translate(-604.42991,-524.08252)"
         id="path48" />
    </clipPath>
    <clipPath
       clipPathUnits="userSpaceOnUse"
       id="clipPath50">
      <path
         d="M 0,0 H 792 V 612 H 0 Z"
         transform="translate(-618.15662,-526.88501)"
         id="path50" />
    </clipPath>
    <clipPath
       clipPathUnits="userSpaceOnUse"
       id="clipPath52">
      <path
         d="M 0,0 H 792 V 612 H 0 Z"
         transform="translate(-631.97992,-525.83941)"
         id="path52" />
    </clipPath>
    <clipPath
       clipPathUnits="userSpaceOnUse"
       id="clipPath54">
      <path
         d="M 0,0 H 792 V 612 H 0 Z"
         transform="translate(-643.40992,-517.53781)"
         id="path54" />
    </clipPath>
    <clipPath
       clipPathUnits="userSpaceOnUse"
       id="clipPath56">
      <path
         d="M 0,0 H 792 V 612 H 0 Z"
         transform="translate(-654.75482,-525.75851)"
         id="path56" />
    </clipPath>
    <clipPath
       clipPathUnits="userSpaceOnUse"
       id="clipPath58">
      <path
         d="M 0,0 H 792 V 612 H 0 Z"
         transform="translate(-687.35171,-515.01611)"
         id="path58" />
    </clipPath>
    <clipPath
       clipPathUnits="userSpaceOnUse"
       id="clipPath60">
      <path
         d="M 0,0 H 792 V 612 H 0 Z"
         transform="translate(-708.70062,-517.47091)"
         id="path60" />
    </clipPath>
    <clipPath
       clipPathUnits="userSpaceOnUse"
       id="clipPath62">
      <path
         d="M 0,0 H 792 V 612 H 0 Z"
         transform="translate(-720.58672,-525.83941)"
         id="path62" />
    </clipPath>
    <clipPath
       clipPathUnits="userSpaceOnUse"
       id="clipPath64">
      <path
         d="M 0,0 H 792 V 612 H 0 Z"
         transform="translate(-735.87112,-522.71411)"
         id="path64" />
    </clipPath>
    <clipPath
       clipPathUnits="userSpaceOnUse"
       id="clipPath66">
      <path
         d="M 0,0 H 792 V 612 H 0 Z"
         transform="translate(-745.32092,-524.08252)"
         id="path66" />
    </clipPath>
    <clipPath
       clipPathUnits="userSpaceOnUse"
       id="clipPath68">
      <path
         d="M 0,0 H 792 V 612 H 0 Z"
         transform="translate(-533.21521,-522.87061)"
         id="path68" />
    </clipPath>
  </defs>
  <g
     inkscape:label="Layer 1"
     inkscape:groupmode="layer"
     id="layer1"
     transform="translate(-64.558328,-143.66874)">
    <path
       id="path41"
       d="m 0,0 h 0.576 c -0.608,-2.083 -2.129,-3.126 -4.562,-3.126 -1.564,0 -2.883,0.533 -3.95,1.597 -1.069,1.064 -1.603,2.472 -1.603,4.224 0,1.797 0.577,3.255 1.729,4.372 1.154,1.117 2.517,1.676 4.091,1.676 0.947,0 1.818,-0.207 2.614,-0.624 C -0.308,7.704 0.091,7.197 0.091,6.598 0.091,6.374 0.015,6.164 -0.133,5.967 -0.279,5.771 -0.492,5.672 -0.768,5.672 c -0.591,0 -0.954,0.344 -1.088,1.033 -0.107,0.519 -0.271,0.881 -0.494,1.086 -0.234,0.206 -0.685,0.308 -1.355,0.308 -1.198,0 -2.1,-0.415 -2.704,-1.246 -0.602,-0.832 -0.905,-2.083 -0.905,-3.756 0,-1.725 0.326,-3.075 0.975,-4.05 0.651,-0.975 1.633,-1.461 2.951,-1.461 1.774,0 2.903,0.805 3.388,2.414"
       style="fill:#231f20;fill-opacity:1;fill-rule:nonzero;stroke:none"
       transform="matrix(0.35277776,0,0,-0.35277776,78.050099,149.77037)"
       clip-path="url(#clipPath42)" />
    <path
       id="path43"
       d="M 0,0 C 0.538,0.751 1.138,1.314 1.804,1.69 2.469,2.066 3.2,2.253 3.996,2.253 4.9,2.253 5.648,2.066 6.243,1.69 6.836,1.314 7.224,0.851 7.402,0.302 7.582,-0.249 7.669,-1.14 7.669,-2.374 v -3.03 c 0,-1.288 0.027,-2.07 0.076,-2.347 0.05,-0.277 0.194,-0.481 0.436,-0.61 0.241,-0.13 0.687,-0.195 1.34,-0.195 V -9.173 H 3.849 v 0.617 h 0.256 c 0.65,0 1.072,0.093 1.266,0.281 0.192,0.187 0.305,0.41 0.335,0.665 0.032,0.254 0.047,0.99 0.047,2.206 v 3.299 c 0,0.912 -0.053,1.586 -0.16,2.025 C 5.485,0.358 5.232,0.72 4.836,1.006 4.436,1.292 3.939,1.435 3.34,1.435 2.642,1.435 2.016,1.232 1.462,0.824 0.907,0.419 0.421,-0.192 0,-1.005 v -4.399 c 0,-1.235 0.02,-1.995 0.06,-2.281 0.041,-0.286 0.178,-0.503 0.41,-0.649 0.232,-0.149 0.657,-0.222 1.273,-0.222 v -0.617 h -5.577 v 0.617 h 0.28 c 0.645,0 1.062,0.092 1.254,0.276 0.192,0.182 0.305,0.402 0.336,0.656 0.032,0.255 0.047,0.994 0.047,2.22 V 5.538 c 0,1.109 -0.105,1.811 -0.316,2.105 -0.21,0.296 -0.712,0.443 -1.508,0.443 v 0.617 c 1.385,0 2.539,0.188 3.46,0.563 H 0 Z"
       style="fill:#231f20;fill-opacity:1;fill-rule:nonzero;stroke:none"
       transform="matrix(0.35277776,0,0,-0.35277776,81.306802,147.4807)"
       clip-path="url(#clipPath44)" />
    <path
       id="path45"
       d="m 0,0 h 0.491 c -0.08,-1.529 -0.831,-2.294 -2.247,-2.294 -0.606,0 -1.085,0.161 -1.437,0.483 -0.352,0.322 -0.582,0.801 -0.688,1.436 -0.896,-0.635 -1.714,-1.114 -2.452,-1.436 -0.739,-0.322 -1.402,-0.483 -1.983,-0.483 -0.743,0 -1.384,0.215 -1.921,0.644 -0.537,0.429 -0.807,0.997 -0.807,1.704 0,0.92 0.451,1.725 1.351,2.414 0.899,0.688 2.144,1.358 3.729,2.011 l 2.083,0.845 V 5.86 c 0,0.76 -0.051,1.31 -0.149,1.65 -0.099,0.34 -0.353,0.644 -0.767,0.912 -0.41,0.268 -0.955,0.402 -1.627,0.402 -1.345,0 -2.092,-0.447 -2.246,-1.341 -0.143,-0.912 -0.519,-1.368 -1.126,-1.368 -0.545,0 -0.817,0.259 -0.817,0.778 0,0.509 0.361,1.057 1.084,1.643 0.726,0.585 1.852,0.878 3.38,0.878 1.136,0 2.017,-0.179 2.644,-0.536 0.626,-0.358 1.039,-0.765 1.239,-1.221 0.201,-0.456 0.302,-1.153 0.302,-2.091 v -4.44 c 0,-1.037 0.053,-1.704 0.162,-1.999 0.107,-0.295 0.34,-0.441 0.7,-0.441 0.592,0 0.96,0.438 1.102,1.314 M -3.881,4.693 -5.348,4.104 C -7.661,3.165 -8.817,1.985 -8.817,0.563 c 0,-0.563 0.148,-1.017 0.444,-1.36 0.297,-0.346 0.681,-0.517 1.156,-0.517 0.421,0 0.91,0.137 1.466,0.414 0.556,0.278 1.18,0.694 1.87,1.249 z"
       style="fill:#231f20;fill-opacity:1;fill-rule:nonzero;stroke:none"
       transform="matrix(0.35277776,0,0,-0.35277776,90.499732,150.00702)"
       clip-path="url(#clipPath46)" />
    <path
       id="path47"
       d="M 0,0 C 0.304,0.795 0.797,1.461 1.481,1.998 2.165,2.534 2.834,2.802 3.487,2.802 4.076,2.802 4.542,2.619 4.881,2.253 5.22,1.886 5.391,1.511 5.391,1.127 5.391,0.867 5.302,0.644 5.129,0.456 4.955,0.268 4.741,0.174 4.491,0.174 4.044,0.174 3.706,0.505 3.472,1.166 3.311,1.614 3.07,1.837 2.747,1.837 2.364,1.837 1.904,1.576 1.368,1.052 0.832,0.531 0.486,-0.013 0.334,-0.577 0.182,-1.141 0.107,-1.913 0.107,-2.897 v -1.957 c 0,-1.172 0.015,-1.91 0.046,-2.213 0.032,-0.304 0.16,-0.537 0.384,-0.698 0.227,-0.161 0.626,-0.241 1.203,-0.241 h 0.378 v -0.617 h -5.835 v 0.617 h 0.284 c 0.536,0 0.918,0.073 1.145,0.221 0.229,0.147 0.366,0.355 0.412,0.623 0.043,0.268 0.065,1.037 0.065,2.308 v 3.097 c 0,1.18 -0.015,1.92 -0.047,2.219 -0.031,0.3 -0.159,0.533 -0.382,0.698 -0.223,0.166 -0.621,0.248 -1.193,0.248 H -3.717 V 2.011 C -2.88,2.11 -1.783,2.373 -0.429,2.802 -0.17,2.096 -0.026,1.162 0,0"
       style="fill:#231f20;fill-opacity:1;fill-rule:nonzero;stroke:none"
       transform="matrix(0.35277776,0,0,-0.35277776,93.737173,147.67459)"
       clip-path="url(#clipPath48)" />
    <path
       id="path49"
       d="m 0,0 v -7.657 c 0,-1.171 0.019,-1.91 0.054,-2.213 0.035,-0.304 0.166,-0.537 0.389,-0.698 0.224,-0.16 0.622,-0.241 1.194,-0.241 h 0.28 v -0.617 h -5.913 v 0.617 h 0.455 c 0.636,0 1.05,0.092 1.242,0.276 0.192,0.182 0.302,0.402 0.335,0.656 0.03,0.255 0.047,0.994 0.047,2.22 v 3.325 c 0,1.288 -0.06,2.075 -0.181,2.36 -0.122,0.287 -0.282,0.466 -0.482,0.537 -0.202,0.071 -0.552,0.107 -1.054,0.107 h -0.362 v 0.617 c 1.591,0.162 2.827,0.398 3.702,0.711 z m -2.587,5.606 c 0,0.384 0.135,0.715 0.409,0.991 0.272,0.278 0.6,0.416 0.985,0.416 0.385,0 0.711,-0.138 0.98,-0.416 C 0.054,6.321 0.189,5.99 0.189,5.606 0.189,5.212 0.054,4.877 -0.213,4.6 -0.482,4.323 -0.808,4.184 -1.193,4.184 c -0.385,0 -0.713,0.139 -0.985,0.416 -0.274,0.277 -0.409,0.612 -0.409,1.006"
       style="fill:#231f20;fill-opacity:1;fill-rule:nonzero;stroke:none"
       transform="matrix(0.35277776,0,0,-0.35277776,98.579649,146.68593)"
       clip-path="url(#clipPath50)" />
    <path
       id="path51"
       d="m 0,0 h -3.313 v -6.638 c 0,-1.019 0.046,-1.706 0.135,-2.059 0.09,-0.352 0.279,-0.637 0.57,-0.852 0.291,-0.214 0.601,-0.322 0.931,-0.322 0.645,0 1.204,0.367 1.677,1.1 l 0.429,-0.256 c -0.276,-0.589 -0.685,-1.033 -1.226,-1.333 -0.542,-0.299 -1.089,-0.449 -1.643,-0.449 -0.645,0 -1.21,0.189 -1.698,0.57 -0.485,0.379 -0.79,0.825 -0.911,1.334 -0.12,0.51 -0.181,1.404 -0.181,2.682 V 0 h -1.59 v 0.61 c 0.732,0.017 1.388,0.327 1.968,0.925 0.58,0.599 0.951,1.44 1.109,2.522 h 0.43 V 0.616 H 0 Z"
       style="fill:#231f20;fill-opacity:1;fill-rule:nonzero;stroke:none"
       transform="matrix(0.35277776,0,0,-0.35277776,103.4562,147.05479)"
       clip-path="url(#clipPath52)" />
    <path
       id="path53"
       d="M 0,0 2.561,6.098 C 2.928,6.994 3.11,7.492 3.11,7.59 3.11,8.037 2.611,8.27 1.614,8.288 V 8.904 H 5.477 V 8.288 C 4.878,8.26 4.441,8.103 4.164,7.812 3.885,7.521 3.542,6.879 3.13,5.888 L -1.777,-5.923 c -0.464,-1.128 -0.875,-1.896 -1.233,-2.303 -0.358,-0.408 -0.752,-0.611 -1.182,-0.611 -0.582,0 -0.871,0.264 -0.871,0.792 0,0.61 0.464,1.126 1.391,1.546 0.545,0.243 0.908,0.449 1.091,0.619 0.183,0.17 0.365,0.479 0.544,0.925 l 1.05,2.608 -4.118,8.851 c -0.364,0.778 -0.669,1.269 -0.911,1.475 -0.241,0.206 -0.652,0.309 -1.233,0.309 v 0.616 h 5.042 V 8.288 c -0.886,-0.028 -1.327,-0.21 -1.327,-0.55 0,-0.134 0.174,-0.573 0.523,-1.314 z"
       style="fill:#231f20;fill-opacity:1;fill-rule:nonzero;stroke:none"
       transform="matrix(0.35277776,0,0,-0.35277776,107.48845,149.98341)"
       clip-path="url(#clipPath54)" />
    <path
       id="path55"
       d="M 0,0 C 0,0.384 0.138,0.723 0.411,1.012 0.684,1.304 1.025,1.449 1.436,1.449 1.839,1.449 2.181,1.307 2.462,1.027 2.745,0.744 2.885,0.402 2.885,0 2.885,-0.393 2.743,-0.732 2.457,-1.013 2.171,-1.294 1.831,-1.435 1.436,-1.435 1.034,-1.435 0.694,-1.292 0.417,-1.006 0.141,-0.719 0,-0.384 0,0 m 0,-9.294 c 0,0.393 0.142,0.731 0.424,1.013 0.281,0.281 0.62,0.423 1.012,0.423 0.403,0 0.745,-0.142 1.026,-0.423 0.283,-0.282 0.423,-0.62 0.423,-1.013 0,-0.403 -0.142,-0.744 -0.428,-1.025 -0.286,-0.283 -0.626,-0.423 -1.021,-0.423 -0.402,0 -0.742,0.146 -1.019,0.436 C 0.141,-10.015 0,-9.679 0,-9.294"
       style="fill:#231f20;fill-opacity:1;fill-rule:nonzero;stroke:none"
       transform="matrix(0.35277776,0,0,-0.35277776,111.49068,147.08334)"
       clip-path="url(#clipPath56)" />
    <path
       id="path57"
       d="M 0,0 H -0.611 L -3.884,8.718 -7.233,0 h -0.562 l -3.378,8.727 c -0.384,0.995 -0.671,1.59 -0.858,1.787 -0.189,0.197 -0.564,0.296 -1.127,0.296 v 0.616 h 5.015 V 10.81 c -0.565,0 -0.95,-0.052 -1.159,-0.155 -0.205,-0.104 -0.308,-0.281 -0.308,-0.533 0,-0.179 0.176,-0.703 0.526,-1.572 l 2.237,-5.894 3.406,8.77 h 0.519 L 0.38,2.656 2.8,8.902 c 0.26,0.663 0.389,1.061 0.389,1.196 0,0.439 -0.451,0.676 -1.354,0.712 v 0.616 H 5.402 V 10.81 C 4.972,10.8 4.634,10.718 4.39,10.561 4.142,10.405 3.918,10.052 3.712,9.507 L 3.418,8.727 Z"
       style="fill:#231f20;fill-opacity:1;fill-rule:nonzero;stroke:none"
       transform="matrix(0.35277776,0,0,-0.35277776,122.99014,150.87302)"
       clip-path="url(#clipPath58)" />
    <path
       id="path59"
       d="m 0,0 h 0.491 c -0.082,-1.529 -0.829,-2.294 -2.246,-2.294 -0.607,0 -1.085,0.161 -1.437,0.483 -0.354,0.322 -0.582,0.801 -0.689,1.436 -0.895,-0.635 -1.713,-1.114 -2.452,-1.436 -0.74,-0.322 -1.399,-0.483 -1.982,-0.483 -0.745,0 -1.384,0.215 -1.921,0.644 -0.537,0.429 -0.807,0.997 -0.807,1.704 0,0.92 0.452,1.725 1.35,2.414 0.902,0.688 2.145,1.358 3.729,2.011 l 2.083,0.845 V 5.86 c 0,0.76 -0.05,1.31 -0.148,1.65 -0.099,0.34 -0.354,0.644 -0.766,0.912 -0.414,0.268 -0.955,0.402 -1.627,0.402 -1.346,0 -2.094,-0.447 -2.246,-1.341 -0.143,-0.912 -0.52,-1.368 -1.127,-1.368 -0.545,0 -0.82,0.259 -0.82,0.778 0,0.509 0.363,1.057 1.088,1.643 0.725,0.585 1.85,0.878 3.38,0.878 1.136,0 2.015,-0.179 2.642,-0.536 0.625,-0.358 1.039,-0.765 1.241,-1.221 0.199,-0.456 0.3,-1.153 0.3,-2.091 v -4.44 c 0,-1.037 0.054,-1.704 0.161,-1.999 0.108,-0.295 0.343,-0.441 0.701,-0.441 0.592,0 0.96,0.438 1.102,1.314 M -3.881,4.693 -5.348,4.104 C -7.659,3.165 -8.815,1.985 -8.815,0.563 c 0,-0.563 0.147,-1.017 0.442,-1.36 0.297,-0.346 0.682,-0.517 1.157,-0.517 0.422,0 0.91,0.137 1.466,0.414 0.555,0.278 1.178,0.694 1.869,1.249 z"
       style="fill:#231f20;fill-opacity:1;fill-rule:nonzero;stroke:none"
       transform="matrix(0.35277776,0,0,-0.35277776,130.52156,150.00702)"
       clip-path="url(#clipPath60)" />
    <path
       id="path61"
       d="m 0,0 h -3.312 v -6.638 c 0,-1.019 0.044,-1.706 0.133,-2.059 0.091,-0.352 0.281,-0.637 0.57,-0.852 0.292,-0.214 0.6,-0.322 0.932,-0.322 0.644,0 1.202,0.367 1.677,1.1 l 0.43,-0.256 c -0.279,-0.589 -0.688,-1.033 -1.228,-1.333 -0.542,-0.299 -1.088,-0.449 -1.644,-0.449 -0.642,0 -1.207,0.189 -1.695,0.57 -0.488,0.379 -0.791,0.825 -0.913,1.334 -0.119,0.51 -0.18,1.404 -0.18,2.682 V 0 h -1.59 v 0.61 c 0.731,0.017 1.388,0.327 1.968,0.925 0.58,0.599 0.95,1.44 1.109,2.522 h 0.431 V 0.616 H 0 Z"
       style="fill:#231f20;fill-opacity:1;fill-rule:nonzero;stroke:none"
       transform="matrix(0.35277776,0,0,-0.35277776,134.71471,147.05479)"
       clip-path="url(#clipPath62)" />
    <path
       id="path63"
       d="m 0,0 h -7.672 c -0.035,-0.526 -0.053,-0.919 -0.053,-1.177 0,-1.928 0.302,-3.376 0.906,-4.345 0.604,-0.968 1.508,-1.453 2.709,-1.453 1.632,0 2.787,0.731 3.469,2.188 H 0 c -0.289,-0.912 -0.857,-1.626 -1.705,-2.139 -0.853,-0.515 -1.778,-0.772 -2.782,-0.772 -0.93,0 -1.809,0.236 -2.638,0.704 -0.827,0.47 -1.507,1.134 -2.033,1.992 -0.53,0.859 -0.792,1.9 -0.792,3.125 0,1.735 0.508,3.176 1.53,4.324 1.021,1.15 2.296,1.724 3.827,1.724 1.44,0 2.556,-0.44 3.343,-1.318 C -0.463,1.973 -0.045,1.023 0,0 m -2.348,0.55 c 0.027,0.206 0.042,0.389 0.042,0.55 0,0.786 -0.233,1.397 -0.694,1.83 -0.461,0.434 -1.028,0.651 -1.701,0.651 -1.631,0 -2.603,-1.011 -2.917,-3.031 z"
       style="fill:#231f20;fill-opacity:1;fill-rule:nonzero;stroke:none"
       transform="matrix(0.35277776,0,0,-0.35277776,140.10671,148.15733)"
       clip-path="url(#clipPath64)" />
    <path
       id="path65"
       d="M 0,0 C 0.303,0.795 0.797,1.461 1.482,1.998 2.164,2.534 2.833,2.802 3.487,2.802 4.076,2.802 4.542,2.619 4.881,2.253 5.221,1.886 5.391,1.511 5.391,1.127 5.391,0.867 5.303,0.644 5.129,0.456 4.955,0.268 4.744,0.174 4.492,0.174 4.046,0.174 3.705,0.505 3.474,1.166 3.313,1.614 3.073,1.837 2.749,1.837 2.365,1.837 1.904,1.576 1.368,1.052 0.831,0.531 0.489,-0.013 0.335,-0.577 0.185,-1.141 0.107,-1.913 0.107,-2.897 v -1.957 c 0,-1.172 0.015,-1.91 0.047,-2.213 0.031,-0.304 0.16,-0.537 0.386,-0.698 0.225,-0.161 0.623,-0.241 1.201,-0.241 h 0.377 v -0.617 h -5.831 v 0.617 h 0.28 c 0.536,0 0.919,0.073 1.145,0.221 0.229,0.147 0.365,0.355 0.41,0.623 0.045,0.268 0.068,1.037 0.068,2.308 v 3.097 c 0,1.18 -0.016,1.92 -0.048,2.219 -0.03,0.3 -0.158,0.533 -0.381,0.698 -0.224,0.166 -0.622,0.248 -1.194,0.248 h -0.28 v 0.603 c 0.836,0.099 1.93,0.362 3.284,0.791 C -0.17,2.096 -0.027,1.162 0,0"
       style="fill:#231f20;fill-opacity:1;fill-rule:nonzero;stroke:none"
       transform="matrix(0.35277776,0,0,-0.35277776,143.44039,147.67459)"
       clip-path="url(#clipPath66)" />
    <path
       id="path67"
       d="m 0,0 h -4.115 c -0.364,0 -0.659,-0.295 -0.659,-0.659 v -1.784 c 0,-0.364 0.295,-0.659 0.659,-0.659 H 0 c 0.364,0 0.659,0.295 0.659,0.659 v 1.784 C 0.659,-0.295 0.364,0 0,0 M 6.723,9.219 C 6.6,9.466 5.804,11.044 5.804,11.044 c 0,0 0.303,0.179 0.441,0.247 0.137,0.068 0.24,0.155 0.053,0.508 -0.201,0.379 -0.398,0.269 -0.398,0.269 0,0 -0.266,-0.147 -0.562,-0.297 -0.494,0.728 -1.181,0.798 -1.386,0.796 -0.137,0 -0.81,0 -1.015,0 C 2.73,12.567 2.539,12.54 2.456,12.429 2.374,12.32 2.182,12.224 1.949,12.224 h -6.956 c -0.069,-0.006 -0.082,0.042 -0.125,0.069 -0.466,0.26 -0.98,0.006 -1.091,-0.117 -0.108,-0.124 -0.548,-0.659 -0.807,-0.953 -0.262,-0.295 -0.488,-0.351 -0.666,-0.406 0.109,0.145 0.027,0.282 0.027,0.282 l -0.104,0.205 0.145,0.392 0.13,0.068 -0.075,0.179 c 0,0 -0.083,-0.035 -0.235,-0.11 -0.149,-0.075 -0.149,-0.144 -0.149,-0.144 -0.068,-0.247 -0.248,-0.261 -0.248,-0.261 0,0 -0.398,0.754 -0.452,0.851 -0.055,0.096 -0.164,0.398 -1.496,-0.315 -1.331,-0.714 -1.015,-0.989 -1.015,-0.989 l 0.453,-0.876 -0.138,-0.111 0.331,-0.658 c 0,0 -0.083,-0.042 -0.373,-0.234 -0.287,-0.192 -0.602,-0.384 -0.602,-0.905 v -19.154 c 0,-1.441 0.412,-2.099 2.017,-2.099 H 5.174 c 0.946,0 1.852,0.494 1.852,2.14 V 8.012 c 0,0.946 -0.18,0.96 -0.303,1.207 m -10.522,1.592 h 4.882 c 0.418,0 0.756,-0.338 0.756,-0.755 0,-0.417 -0.338,-0.754 -0.756,-0.754 h -4.882 c -0.418,0 -0.756,0.337 -0.756,0.754 0,0.417 0.338,0.755 0.756,0.755 M 2.388,-4.261 c 0,0 1.634,-2.853 1.976,-3.507 0.453,-0.866 -0.165,-1.237 -0.165,-1.237 0,0 -0.823,-0.414 -1.235,0.329 -0.349,0.631 -1.488,2.64 -1.894,3.26 -0.521,0.797 -0.74,1.073 -1.44,1.073 h -1.661 -0.11 -1.672 c -0.706,0 -0.927,-0.276 -1.453,-1.073 -0.408,-0.62 -1.555,-2.629 -1.908,-3.26 -0.415,-0.743 -1.245,-0.329 -1.245,-0.329 0,0 -0.622,0.371 -0.165,1.237 0.345,0.654 1.991,3.507 1.991,3.507 0,0 0.414,0.632 0.414,1.155 v 1.459 0.275 1.454 c 0,0.521 -0.414,1.152 -0.414,1.152 0,0 -1.646,2.846 -1.991,3.499 -0.457,0.864 0.165,1.234 0.165,1.234 0,0 0.83,0.412 1.245,-0.329 0.353,-0.629 1.5,-2.634 1.908,-3.252 0.526,-0.796 0.747,-1.069 1.453,-1.069 h 1.672 0.11 1.661 c 0.7,0 0.919,0.273 1.44,1.069 0.406,0.618 1.545,2.623 1.894,3.252 0.412,0.741 1.235,0.329 1.235,0.329 0,0 0.618,-0.37 0.165,-1.234 C 4.022,4.08 2.388,1.234 2.388,1.234 c 0,0 -0.412,-0.631 -0.412,-1.152 v -1.454 -0.275 -1.459 c 0,-0.523 0.412,-1.155 0.412,-1.155"
       style="fill:#231f20;fill-opacity:1;fill-rule:nonzero;stroke:none"
       transform="matrix(0.35277776,0,0,-0.35277776,68.614211,148.10212)"
       clip-path="url(#clipPath68)" />
  </g>
</svg>
